<?xml version="1.0" standalone="no"?>
<!DOCTYPE svg PUBLIC "-//W3C//DTD SVG 20010904//EN"
 "http://www.w3.org/TR/2001/REC-SVG-20010904/DTD/svg10.dtd">
<svg version="1.0" xmlns="http://www.w3.org/2000/svg"
 width="1024.000000pt" height="1024.000000pt" viewBox="0 0 1024.000000 1024.000000"
 preserveAspectRatio="xMidYMid meet">
<metadata>
Created by potrace 1.14, written by Peter Selinger 2001-2017
</metadata>
<g transform="translate(0.000000,1024.000000) scale(0.100000,-0.100000)"
fill="#000000" stroke="none">
<path d="M0 5120 l0 -5120 5120 0 5120 0 0 5120 0 5120 -5120 0 -5120 0 0
-5120z m3613 4093 c-13 -2 -35 -2 -50 0 -16 2 -5 4 22 4 28 0 40 -2 28 -4z
m-115 -10 c-10 -2 -28 -2 -40 0 -13 2 -5 4 17 4 22 1 32 -1 23 -4z m215 0
c-13 -2 -33 -2 -45 0 -13 2 -3 4 22 4 25 0 35 -2 23 -4z m-290 -10 c-7 -2 -19
-2 -25 0 -7 3 -2 5 12 5 14 0 19 -2 13 -5z m466 -33 c78 -32 160 -83 216 -135
l40 -37 -50 39 c-104 81 -196 129 -310 159 l-50 13 44 -6 c24 -3 73 -18 110
-33z m-559 10 c-89 -32 -175 -79 -242 -133 -35 -27 -52 -38 -38 -23 56 62 258
174 315 175 11 0 -5 -9 -35 -19z m273 -1107 c-7 -2 -19 -2 -25 0 -7 3 -2 5 12
5 14 0 19 -2 13 -5z m-80 -10 c-7 -2 -19 -2 -25 0 -7 3 -2 5 12 5 14 0 19 -2
13 -5z m150 0 c-7 -2 -19 -2 -25 0 -7 3 -2 5 12 5 14 0 19 -2 13 -5z m-243
-29 c-30 -14 -75 -41 -100 -60 l-45 -36 40 37 c42 39 120 84 145 84 8 1 -10
-11 -40 -25z m328 2 c27 -14 55 -33 62 -43 14 -17 14 -17 -5 -1 -11 9 -45 28
-75 42 -30 14 -49 26 -42 26 7 0 34 -11 60 -24z m107 -76 c10 -11 16 -20 13
-20 -3 0 -13 9 -23 20 -10 11 -16 20 -13 20 3 0 13 -9 23 -20z m-589 -49 c-10
-11 -28 -46 -42 -78 -13 -32 -24 -51 -24 -43 0 33 60 140 78 140 3 0 -3 -9
-12 -19z m648 -35 c14 -25 26 -51 25 -58 0 -7 -4 -3 -9 9 -5 12 -21 40 -35 63
-15 23 -22 39 -17 36 6 -3 22 -26 36 -50z m-717 -158 c-2 -13 -4 -5 -4 17 -1
22 1 32 4 23 2 -10 2 -28 0 -40z m760 -70 c-2 -24 -4 -5 -4 42 0 47 2 66 4 43
2 -24 2 -62 0 -85z m-2237 59 c0 -2 -10 -12 -22 -23 l-23 -19 19 23 c18 21 26
27 26 19z m1477 -79 c-2 -13 -4 -5 -4 17 -1 22 1 32 4 23 2 -10 2 -28 0 -40z
m93 -192 l42 -51 -43 45 c-41 44 -89 130 -89 160 0 8 11 -11 25 -44 13 -32 42
-81 65 -110z m634 88 c-15 -30 -34 -60 -42 -67 -8 -6 -1 11 16 38 17 28 34 63
38 80 4 16 9 24 12 17 2 -7 -9 -38 -24 -68z m-2324 63 c0 -2 -10 -12 -22 -23
l-23 -19 19 23 c18 21 26 27 26 19z m-80 -81 c0 -2 -8 -10 -17 -17 -16 -13
-17 -12 -4 4 13 16 21 21 21 13z m-40 -39 c0 -2 -10 -12 -22 -23 l-23 -19 19
23 c18 21 26 27 26 19z m2390 -30 c0 -2 -12 -14 -27 -28 l-28 -24 24 28 c23
25 31 32 31 24z m-2440 -20 c0 -1 -276 -277 -612 -612 l-613 -610 610 613
c567 569 615 616 615 609z m1995 -85 c-4 -4 -85 46 -85 53 0 2 20 -8 45 -22
24 -15 42 -29 40 -31z m385 53 c0 -10 -79 -54 -107 -60 l-28 -5 30 12 c17 6
46 21 65 34 39 26 40 26 40 19z m-320 -65 c20 -6 21 -8 5 -8 -11 0 -29 3 -40
8 -25 11 1 11 35 0z m177 -6 c-3 -3 -12 -4 -19 -1 -8 3 -5 6 6 6 11 1 17 -2
13 -5z m-64 -11 c-13 -2 -35 -2 -50 0 -16 2 -5 4 22 4 28 0 40 -2 28 -4z
m3448 -1255 c42 -69 89 -188 88 -223 0 -11 -8 8 -18 42 -25 85 -73 181 -133
261 -34 46 -38 55 -13 27 20 -22 54 -70 76 -107z m-6879 95 c-48 -61 -93 -140
-124 -216 -16 -40 -26 -58 -23 -42 10 49 71 167 120 233 25 34 48 62 51 62 3
0 -8 -17 -24 -37z m8831 10 c-265 -2 -701 -2 -970 0 -268 1 -51 2 482 2 534 0
753 -1 488 -2z m580 -10 c-13 -2 -33 -2 -45 0 -13 2 -3 4 22 4 25 0 35 -2 23
-4z m-1969 -126 c8 -23 17 -60 20 -82 4 -26 -1 -16 -13 25 -10 36 -28 89 -40
118 -11 29 -21 56 -20 60 1 10 35 -69 53 -121z m2023 117 c-3 -3 -12 -4 -19
-1 -8 3 -5 6 6 6 11 1 17 -2 13 -5z m169 -59 c53 -27 114 -67 145 -96 l54 -51
-50 42 c-63 53 -161 108 -245 138 -41 15 -52 21 -30 18 19 -3 76 -26 126 -51z
m-8249 -52 c-20 -2 -52 -2 -70 0 -17 2 0 4 38 4 39 0 53 -2 32 -4z m2056 0
c-18 -2 -48 -2 -65 0 -18 2 -4 4 32 4 36 0 50 -2 33 -4z m2040 0 c-18 -2 -48
-2 -65 0 -18 2 -4 4 32 4 36 0 50 -2 33 -4z m-4258 -28 c-33 -14 -73 -35 -90
-47 -23 -17 -27 -18 -15 -3 17 20 126 75 150 75 8 0 -12 -12 -45 -25z m2102
19 c-3 -3 -12 -4 -19 -1 -8 3 -5 6 6 6 11 1 17 -2 13 -5z m2288 -22 c33 -16
67 -37 75 -47 12 -15 8 -14 -15 3 -17 12 -57 33 -90 47 -33 13 -53 25 -45 25
8 0 42 -13 75 -28z m-4070 -11 c28 -16 58 -37 65 -47 8 -10 -1 -6 -20 8 -20
15 -56 36 -80 47 -25 11 -38 21 -30 21 8 0 38 -13 65 -29z m1695 1 c-66 -33
-147 -111 -177 -172 -13 -25 -23 -39 -23 -32 0 23 67 118 107 152 41 34 121
80 138 80 5 -1 -15 -13 -45 -28z m363 -9 c20 -13 37 -26 37 -29 0 -4 -6 -2
-12 4 -7 6 -35 22 -63 37 -27 14 -39 23 -25 19 14 -4 42 -18 63 -31z m1697 16
c-24 -11 -60 -32 -80 -47 -19 -14 -28 -18 -20 -8 18 22 110 76 130 76 8 0 -5
-10 -30 -21z m-1541 -189 c20 -42 26 -74 29 -140 2 -47 0 -95 -5 -108 -6 -15
-8 10 -5 70 5 113 -16 180 -85 266 l-44 57 42 -45 c23 -25 54 -70 68 -100z
m-2693 85 c-20 -24 -45 -63 -56 -87 -11 -24 -20 -37 -20 -30 0 27 89 162 107
162 3 0 -11 -20 -31 -45z m4735 -80 c16 -33 29 -67 28 -75 0 -8 -6 1 -14 21
-19 53 -44 99 -77 144 l-30 40 32 -35 c18 -19 45 -62 61 -95z m4144 -10 c42
-68 85 -163 85 -188 -1 -7 -13 20 -28 58 -30 76 -80 158 -133 221 l-33 39 33
-30 c18 -16 52 -61 76 -100z m-8246 26 c17 -33 31 -65 31 -72 0 -8 -12 11 -26
41 -14 30 -37 71 -52 90 -19 26 -20 30 -5 17 11 -10 35 -44 52 -76z m3451 51
c-17 -21 -39 -61 -50 -88 -10 -27 -19 -42 -19 -34 -1 24 33 92 63 128 39 45
44 40 6 -6z m2327 -14 c-3 -7 -5 -2 -5 12 0 14 2 19 5 13 2 -7 2 -19 0 -25z
m-7633 -52 c-3 -21 -8 -35 -11 -32 -2 2 -1 20 3 40 3 21 8 35 11 32 2 -2 1
-20 -3 -40z m7643 -18 c-2 -13 -4 -5 -4 17 -1 22 1 32 4 23 2 -10 2 -28 0 -40z
m-510 -20 c-3 -7 -5 -2 -5 12 0 14 2 19 5 13 2 -7 2 -19 0 -25z m-3947 -68
c-6 -42 -8 -47 -9 -20 -1 34 8 84 14 78 2 -2 0 -28 -5 -58z m-2043 28 c-3 -8
-6 -5 -6 6 -1 11 2 17 5 13 3 -3 4 -12 1 -19z m6510 -145 c-2 -32 -3 -6 -3 57
0 63 1 89 3 58 2 -32 2 -84 0 -115z m-5760 85 c-2 -13 -4 -3 -4 22 0 25 2 35
4 23 2 -13 2 -33 0 -45z m3340 25 c-3 -10 -5 -4 -5 12 0 17 2 24 5 18 2 -7 2
-21 0 -30z m1910 -95 c-2 -24 -4 -5 -4 42 0 47 2 66 4 43 2 -24 2 -62 0 -85z
m-6010 15 c-2 -21 -4 -6 -4 32 0 39 2 55 4 38 2 -18 2 -50 0 -70z m4860 -5
c-2 -18 -4 -4 -4 32 0 36 2 50 4 33 2 -18 2 -48 0 -65z m-770 30 c-3 -8 -6 -5
-6 6 -1 11 2 17 5 13 3 -3 4 -12 1 -19z m-2040 -60 c-2 -13 -4 -5 -4 17 -1 22
1 32 4 23 2 -10 2 -28 0 -40z m-1307 -72 c-12 -31 -33 -69 -46 -84 l-25 -27
25 40 c31 49 55 117 58 159 l1 31 4 -31 c2 -17 -6 -56 -17 -88z m3357 57 c-3
-10 -5 -2 -5 17 0 19 2 27 5 18 2 -10 2 -26 0 -35z m4960 5 c-3 -8 -6 -5 -6 6
-1 11 2 17 5 13 3 -3 4 -12 1 -19z m-9013 -108 c10 -19 28 -46 40 -60 l21 -25
-23 19 c-29 25 -69 97 -76 138 l-5 33 12 -35 c7 -19 21 -51 31 -70z m2078 -49
l23 -26 -24 20 c-25 21 -71 109 -71 135 0 8 11 -11 25 -44 13 -32 34 -70 47
-85z m6945 107 c-3 -7 -5 -2 -5 12 0 14 2 19 5 13 2 -7 2 -19 0 -25z m-4862
-143 c25 -25 74 -60 108 -76 34 -17 49 -28 33 -24 -43 9 -132 71 -170 119 -36
44 -76 117 -76 138 0 7 13 -15 29 -49 17 -34 51 -83 76 -108z m609 85 c-15
-27 -36 -57 -46 -67 -11 -10 -4 6 16 36 20 29 39 65 43 80 3 14 8 20 10 14 3
-7 -8 -35 -23 -63z m1181 20 c-4 -23 -9 -39 -11 -37 -3 2 -2 23 2 46 4 23 9
40 11 37 3 -3 2 -23 -2 -46z m-3229 -17 c-13 -27 -32 -56 -41 -63 -11 -9 -8 0
7 22 14 20 31 50 38 67 7 18 15 30 17 27 2 -2 -7 -26 -21 -53z m3741 10 c-3
-10 -5 -2 -5 17 0 19 2 27 5 18 2 -10 2 -26 0 -35z m-7650 15 c-3 -8 -6 -5 -6
6 -1 11 2 17 5 13 3 -3 4 -12 1 -19z m45 -138 c25 -63 81 -164 112 -200 l21
-25 -23 20 c-45 38 -136 221 -147 294 l-5 36 11 -35 c5 -19 20 -60 31 -90z
m7595 53 c-3 -10 -5 -4 -5 12 0 17 2 24 5 18 2 -7 2 -21 0 -30z m-538 -51
c-32 -81 -92 -183 -126 -212 l-28 -25 26 30 c53 61 137 227 140 274 0 11 2 12
6 3 3 -7 -5 -39 -18 -70z m-5324 2 c-41 -37 -124 -84 -147 -84 -7 0 14 13 47
29 33 16 76 43 95 60 19 16 37 30 40 30 3 0 -13 -16 -35 -35z m5843 -32 c-6
-29 -13 -50 -16 -47 -2 2 1 27 8 55 7 28 14 49 16 47 3 -2 -1 -27 -8 -55z
m-6252 -27 c33 -14 52 -25 44 -25 -28 0 -115 47 -140 76 l-25 29 31 -28 c17
-15 58 -39 90 -52z m4493 49 c-25 -28 -113 -74 -139 -73 -8 0 8 9 35 19 28 11
66 33 85 49 44 37 51 39 19 5z m-2464 -42 c22 -12 36 -21 32 -22 -17 -1 -83
39 -102 61 l-20 24 25 -21 c14 -12 43 -31 65 -42z m409 37 c-20 -22 -93 -63
-100 -56 -2 2 14 12 36 22 21 10 47 26 56 36 10 11 19 19 22 19 3 0 -3 -9 -14
-21z m-275 -75 c9 -8 -55 -2 -74 6 -13 6 -5 7 25 3 25 -3 47 -7 49 -9z m146 6
c-11 -5 -33 -8 -50 -8 -29 1 -29 1 5 8 49 10 69 10 45 0z m-2202 -7 c-7 -2
-21 -2 -30 0 -10 3 -4 5 12 5 17 0 24 -2 18 -5z m125 0 c-10 -2 -26 -2 -35 0
-10 3 -2 5 17 5 19 0 27 -2 18 -5z m3970 0 c-10 -2 -26 -2 -35 0 -10 3 -2 5
17 5 19 0 27 -2 18 -5z m125 0 c-7 -2 -21 -2 -30 0 -10 3 -4 5 12 5 17 0 24
-2 18 -5z m-66 -9 c-3 -3 -12 -4 -19 -1 -8 3 -5 6 6 6 11 1 17 -2 13 -5z
m1950 -65 c-58 -153 -170 -332 -259 -414 l-43 -40 41 45 c105 115 202 273 254
418 13 34 25 61 27 59 2 -3 -7 -33 -20 -68z m-5967 -1504 c789 -789 1433
-1435 1430 -1435 -3 0 -651 646 -1440 1435 -789 789 -1433 1435 -1430 1435 3
0 651 -646 1440 -1435z m5340 1422 c0 -1 -645 -646 -1432 -1432 l-1433 -1430
1430 1433 c786 787 1431 1432 1432 1432 2 0 3 -1 3 -3z m129 -581 c-71 -75
-1134 -1136 -1138 -1136 -3 0 251 257 564 570 313 314 571 570 574 570 2 0 2
-2 0 -4z m-3348 -583 c36 -18 74 -42 85 -54 13 -15 5 -12 -25 9 -134 96 -318
97 -450 2 -23 -17 -41 -28 -41 -26 0 12 75 60 127 82 49 21 71 24 148 22 79
-3 99 -7 156 -35z m3972 30 c-24 -2 -62 -2 -85 0 -24 2 -5 4 42 4 47 0 66 -2
43 -4z m-180 -23 c-12 -5 -40 -20 -62 -35 -23 -14 -41 -23 -41 -20 0 9 95 65
110 64 9 0 6 -4 -7 -9z m329 -19 c25 -16 49 -35 54 -43 4 -7 -1 -6 -12 4 -10
9 -41 28 -68 42 -27 14 -42 26 -34 26 8 0 35 -13 60 -29z m-459 -63 c-12 -13
-37 -48 -57 -78 -20 -30 -36 -50 -36 -44 0 19 94 144 108 144 3 0 -4 -10 -15
-22z m548 -5 c13 -16 12 -17 -3 -4 -10 7 -18 15 -18 17 0 8 8 3 21 -13z
m-4668 -25 c-12 -13 -33 -45 -47 -72 -14 -27 -26 -43 -26 -36 0 24 72 130 88
130 3 0 -4 -10 -15 -22z m640 -77 c30 -61 32 -73 32 -166 0 -93 -2 -105 -32
-166 -18 -36 -42 -74 -54 -85 -15 -13 -12 -5 9 25 97 135 97 317 0 452 -21 30
-24 38 -9 25 12 -11 36 -49 54 -85z m4088 18 c10 -21 19 -42 19 -46 -1 -4 -10
10 -22 32 -11 22 -28 49 -37 60 -15 19 -15 19 2 5 10 -7 27 -31 38 -51z m-710
-95 c-5 -21 -9 -30 -10 -19 -1 24 10 67 15 62 3 -2 0 -22 -5 -43z m-4100 -29
c-6 -35 -9 -41 -10 -20 -1 30 9 78 15 73 2 -2 -1 -26 -5 -53z m4846 -2 c-3
-10 -5 -4 -5 12 0 17 2 24 5 18 2 -7 2 -21 0 -30z m-760 -80 c-2 -16 -4 -5 -4
22 0 28 2 40 4 28 2 -13 2 -35 0 -50z m770 10 c-3 -10 -5 -4 -5 12 0 17 2 24
5 18 2 -7 2 -21 0 -30z m-4854 -53 c3 -34 2 -47 -3 -35 -8 19 -14 103 -6 94 2
-2 6 -29 9 -59z m4844 -22 c-3 -7 -5 -2 -5 12 0 14 2 19 5 13 2 -7 2 -19 0
-25z m-690 -125 c43 -65 97 -109 171 -139 31 -13 50 -24 42 -24 -35 0 -125 54
-173 103 -56 57 -94 123 -102 178 -4 24 -1 20 11 -16 9 -27 32 -73 51 -102z
m659 40 c-13 -27 -32 -56 -41 -63 -10 -8 -6 2 8 24 15 21 32 54 39 73 7 19 14
30 16 24 2 -5 -8 -31 -22 -58z m-4733 -73 c18 -20 18 -22 3 -10 -24 19 -76 99
-76 118 0 8 12 -7 26 -34 14 -27 35 -60 47 -74z m2667 27 c0 -1 -190 -191
-422 -422 l-423 -420 420 423 c390 392 425 426 425 419z m2010 -40 c0 -2 -10
-12 -22 -23 l-23 -19 19 23 c18 21 26 27 26 19z m-4556 -81 c27 -14 43 -26 37
-26 -19 0 -96 48 -117 73 l-19 22 25 -22 c14 -12 47 -33 74 -47z m425 47 c-19
-23 -100 -73 -118 -73 -8 0 8 11 36 25 28 14 58 34 68 45 22 24 33 27 14 3z
m4070 -20 c-16 -19 -106 -63 -129 -63 -8 0 12 11 44 25 33 13 66 31 75 40 20
20 27 19 10 -2z m-4330 -69 c9 -8 -75 -2 -94 6 -12 5 1 6 35 3 30 -3 57 -7 59
-9z m106 6 c-11 -5 -36 -8 -55 -8 l-35 1 40 7 c57 10 74 10 50 0z m3973 -7
c-10 -2 -28 -2 -40 0 -13 2 -5 4 17 4 22 1 32 -1 23 -4z m90 0 c-10 -2 -28 -2
-40 0 -13 2 -5 4 17 4 22 1 32 -1 23 -4z m-4568 -1039 c36 -21 101 -51 145
-66 44 -15 72 -28 63 -28 -54 0 -263 105 -303 152 l-20 23 25 -22 c14 -11 54
-38 90 -59z m905 56 c-34 -38 -230 -141 -267 -140 -7 1 21 14 62 31 41 16 107
52 145 78 80 56 84 58 60 31z m-288 -146 c-3 -3 -12 -4 -19 -1 -8 3 -5 6 6 6
11 1 17 -2 13 -5z m-360 -10 c-3 -3 -12 -4 -19 -1 -8 3 -5 6 6 6 11 1 17 -2
13 -5z m320 0 c-3 -3 -12 -4 -19 -1 -8 3 -5 6 6 6 11 1 17 -2 13 -5z m-234
-11 c-13 -2 -35 -2 -50 0 -16 2 -5 4 22 4 28 0 40 -2 28 -4z m180 0 c-13 -2
-35 -2 -50 0 -16 2 -5 4 22 4 28 0 40 -2 28 -4z m1424 -350 c-2 -16 -4 -3 -4
27 0 30 2 43 4 28 2 -16 2 -40 0 -55z m10 -65 c-3 -8 -6 -5 -6 6 -1 11 2 17 5
13 3 -3 4 -12 1 -19z m5090 0 c-3 -8 -6 -5 -6 6 -1 11 2 17 5 13 3 -3 4 -12 1
-19z m-5080 -50 c-3 -7 -5 -2 -5 12 0 14 2 19 5 13 2 -7 2 -19 0 -25z m5070
10 c-3 -8 -6 -5 -6 6 -1 11 2 17 5 13 3 -3 4 -12 1 -19z m-27 -89 c-27 -70
-103 -192 -145 -229 -15 -14 -4 4 24 40 51 64 113 177 127 233 3 15 9 26 12
23 2 -3 -6 -33 -18 -67z m-4951 -119 c18 -30 49 -73 70 -95 l36 -40 -34 30
c-57 51 -163 234 -160 279 0 6 12 -18 27 -54 15 -36 42 -90 61 -120z m264
-258 c30 -18 86 -44 124 -57 37 -14 60 -25 51 -25 -56 0 -232 96 -293 162
l-40 42 51 -45 c28 -24 76 -59 107 -77z m4467 73 c-56 -57 -241 -157 -287
-154 -16 1 -15 2 2 6 78 19 247 114 289 161 11 12 22 22 25 22 2 0 -10 -16
-29 -35z m-4243 -161 c-3 -3 -12 -4 -19 -1 -8 3 -5 6 6 6 11 1 17 -2 13 -5z
m3926 -1 c-7 -2 -19 -2 -25 0 -7 3 -2 5 12 5 14 0 19 -2 13 -5z m-3855 -10
c-10 -2 -28 -2 -40 0 -13 2 -5 4 17 4 22 1 32 -1 23 -4z m3800 0 c-10 -2 -28
-2 -40 0 -13 2 -5 4 17 4 22 1 32 -1 23 -4z m-995 -10 c-508 -2 -1338 -2
-1845 0 -508 1 -93 2 922 2 1015 0 1430 -1 923 -2z"/>
</g>
</svg>
